<?xml version="1.0" encoding="UTF-8" standalone="no"?>
<!-- Created with Inkscape (http://www.inkscape.org/) -->

<svg
   width="1024"
   height="280"
   viewBox="0 0 1024 280"
   version="1.1"
   id="svg1"
   inkscape:version="1.3.2 (091e20ef0f, 2023-11-25)"
   sodipodi:docname="3versions.svg"
   xml:space="preserve"
   inkscape:export-filename="3versions.png"
   inkscape:export-xdpi="96"
   inkscape:export-ydpi="96"
   xmlns:inkscape="http://www.inkscape.org/namespaces/inkscape"
   xmlns:sodipodi="http://sodipodi.sourceforge.net/DTD/sodipodi-0.dtd"
   xmlns="http://www.w3.org/2000/svg"
   xmlns:svg="http://www.w3.org/2000/svg"><sodipodi:namedview
     id="namedview1"
     pagecolor="#ffffff"
     bordercolor="#000000"
     borderopacity="0.25"
     inkscape:showpageshadow="2"
     inkscape:pageopacity="0.0"
     inkscape:pagecheckerboard="0"
     inkscape:deskcolor="#d1d1d1"
     inkscape:document-units="px"
     inkscape:zoom="1.1035156"
     inkscape:cx="512"
     inkscape:cy="139.55398"
     inkscape:current-layer="layer1" /><defs
     id="defs1" /><g
     inkscape:label="Layer 1"
     inkscape:groupmode="layer"
     id="layer1"><g
       id="g1"
       transform="translate(97)"><path
         id="Lm-circle"
         style="fill:#20df5f;fill-opacity:1;stroke:none;stroke-width:0"
         d="M 100,20 A 100,100 0 0 0 0,120 100,100 0 0 0 100,220 100,100 0 0 0 200,120 100,100 0 0 0 100,20 Z M 34.375,59.0625 h 18.75 v 84.375 c 0,10.46637 8.28364,18.75 18.75,18.75 h 56.25 c 10.46637,0 18.75,-8.28363 18.75,-18.75 v -46.875 c 0,-5.288705 -4.0863,-9.375 -9.375,-9.375 -5.2887,0 -9.375,4.086295 -9.375,9.375 v 46.875 h -18.75 v -46.875 c 0,-5.288705 -4.0863,-9.375 -9.375,-9.375 -5.2887,0 -9.375,4.086295 -9.375,9.375 v 46.875 h -18.75 v -46.875 c 0,-15.421938 12.70306,-28.125 28.125,-28.125 7.20449,0 13.75014,2.846395 18.75,7.373047 4.99986,-4.526652 11.54551,-7.373047 18.75,-7.373047 15.42194,0 28.125,12.703062 28.125,28.125 v 46.875 c 0,20.59959 -16.90041,37.5 -37.5,37.5 h -56.25 c -20.59959,0 -37.5,-16.90041 -37.5,-37.5 z" /><path
         style="font-weight:bold;font-size:18.6667px;line-height:1.25;font-family:Ubuntu;-inkscape-font-specification:'Ubuntu Bold';fill:#808080"
         d="m 40.098564,249.50136 q 0,-2.68801 -1.97867,-2.68801 -0.429334,0 -0.858669,0.112 -0.410667,0.112 -0.672001,0.28 v 5.05868 q 0.205334,0.0373 0.522668,0.0747 0.317334,0.0187 0.690668,0.0187 1.138669,0 1.717336,-0.784 0.578668,-0.784 0.578668,-2.072 z m 2.837338,0.0747 q 0,1.17601 -0.354667,2.12801 -0.336001,0.952 -0.989335,1.624 -0.653335,0.672 -1.605336,1.04534 -0.952002,0.35466 -2.165338,0.35466 -0.504,0 -1.064001,-0.056 -0.541335,-0.0373 -1.082669,-0.112 -0.522668,-0.0747 -1.008002,-0.168 -0.485334,-0.112 -0.858668,-0.224 v -13.72002 l 2.781338,-0.448 v 4.89067 q 0.466668,-0.20533 0.970669,-0.31733 0.504001,-0.112 1.082668,-0.112 1.045336,0 1.848004,0.37333 0.802668,0.35467 1.344002,1.02667 0.541334,0.672 0.821335,1.624 0.28,0.93334 0.28,2.09067 z m 5.898679,2.96801 q 0.410668,0 0.784002,-0.0187 0.373334,-0.0187 0.597334,-0.056 v -2.10933 q -0.168,-0.0373 -0.504001,-0.0747 -0.336,-0.0373 -0.616001,-0.0373 -0.392,0 -0.746668,0.056 -0.336,0.0373 -0.597334,0.168 -0.261334,0.13066 -0.410668,0.35466 -0.149333,0.224 -0.149333,0.56 0,0.65334 0.429334,0.91467 0.448001,0.24267 1.213335,0.24267 z m -0.224,-8.13868 q 1.232002,0 2.053337,0.28 0.821335,0.28 1.306669,0.80267 0.504001,0.52266 0.709335,1.26933 0.205333,0.74667 0.205333,1.66134 v 5.78668 q -0.597334,0.13066 -1.661336,0.29866 -1.064002,0.18667 -2.576005,0.18667 -0.952001,0 -1.736003,-0.168 -0.765334,-0.168 -1.325335,-0.54133 -0.560001,-0.392 -0.858669,-1.00801 -0.298667,-0.616 -0.298667,-1.512 0,-0.85867 0.336001,-1.456 0.354667,-0.59734 0.933335,-0.952 0.578667,-0.35467 1.325335,-0.504 0.746668,-0.168 1.549337,-0.168 0.541334,0 0.952001,0.056 0.429334,0.0373 0.690668,0.112 v -0.26134 q 0,-0.70933 -0.429334,-1.13867 -0.429334,-0.42933 -1.493336,-0.42933 -0.709335,0 -1.400002,0.112 -0.690668,0.0933 -1.194669,0.28 l -0.354668,-2.24 q 0.242668,-0.0747 0.597335,-0.14934 0.373334,-0.0933 0.802668,-0.14933 0.429334,-0.0747 0.896002,-0.112 0.485334,-0.056 0.970668,-0.056 z m 9.16534,5.09601 q 0,1.288 0.578668,2.072 0.578668,0.784 1.717336,0.784 0.373334,0 0.690668,-0.0187 0.317334,-0.0373 0.522668,-0.0747 v -5.05868 q -0.261334,-0.168 -0.690668,-0.28 -0.410667,-0.112 -0.840001,-0.112 -1.978671,0 -1.978671,2.68801 z m 6.290678,4.66667 q -0.373334,0.112 -0.858668,0.224 -0.485334,0.0933 -1.026668,0.168 -0.522668,0.0747 -1.082669,0.112 -0.541334,0.056 -1.045335,0.056 -1.213336,0 -2.165338,-0.35466 -0.952001,-0.35467 -1.605336,-1.00801 -0.653334,-0.672 -1.008002,-1.60533 -0.336,-0.952 -0.336,-2.12801 0,-1.19466 0.298667,-2.14667 0.298667,-0.97066 0.858668,-1.64267 0.560001,-0.672 1.362669,-1.02666 0.821335,-0.35467 1.86667,-0.35467 0.578668,0 1.026669,0.112 0.466667,0.112 0.933335,0.31733 v -4.44267 l 2.781338,-0.448 z m 4.984013,-4.90934 q 0,2.33334 1.885337,2.33334 0.429334,0 0.802668,-0.112 0.373334,-0.112 0.634668,-0.26134 v -4.44267 q -0.205334,-0.0373 -0.485335,-0.056 -0.28,-0.0373 -0.653334,-0.0373 -1.101335,0 -1.64267,0.728 -0.541334,0.728 -0.541334,1.848 z m 6.104011,3.99467 q 0,2.40801 -1.232002,3.56534 -1.213336,1.17601 -3.770674,1.17601 -0.896001,0 -1.792003,-0.168 -0.896002,-0.14934 -1.661336,-0.41067 l 0.485334,-2.33334 q 0.653334,0.26134 1.362669,0.41067 0.728001,0.14933 1.64267,0.14933 1.194668,0 1.680003,-0.52267 0.504001,-0.52266 0.504001,-1.344 v -0.35467 q -0.448001,0.20534 -0.933335,0.31734 -0.466668,0.0933 -1.026669,0.0933 -2.03467,0 -3.117339,-1.19467 -1.082669,-1.21333 -1.082669,-3.37867 0,-1.08267 0.336001,-1.96 0.336001,-0.896 0.970668,-1.53067 0.653335,-0.63467 1.58667,-0.97067 0.933335,-0.35467 2.109337,-0.35467 0.504001,0 1.026669,0.056 0.541334,0.0373 1.064002,0.112 0.522667,0.0747 0.989335,0.18667 0.485334,0.0933 0.858668,0.20533 z m 2.146667,-3.60267 q 0,-1.30667 0.392001,-2.27734 0.410667,-0.98933 1.064002,-1.64267 0.653334,-0.65333 1.493336,-0.98933 0.858668,-0.336 1.754669,-0.336 2.090671,0 3.304006,1.288 1.213336,1.26934 1.213336,3.75201 0,0.24266 -0.01867,0.54133 -0.01867,0.28 -0.03733,0.504 h -6.309345 q 0.09333,0.85867 0.802668,1.36267 0.709335,0.504 1.904004,0.504 0.765334,0 1.493336,-0.13066 0.746668,-0.14934 1.213335,-0.35467 l 0.373334,2.25867 q -0.224,0.112 -0.597334,0.224 -0.373334,0.112 -0.840002,0.18667 -0.448001,0.0933 -0.970668,0.14933 -0.522668,0.056 -1.045335,0.056 -1.325336,0 -2.314671,-0.392 -0.970669,-0.392 -1.624003,-1.064 -0.634668,-0.69067 -0.952002,-1.624 -0.298667,-0.93334 -0.298667,-2.01601 z m 6.533345,-1.064 q -0.01867,-0.35467 -0.130667,-0.69067 -0.09333,-0.336 -0.317334,-0.59733 -0.205333,-0.26134 -0.541334,-0.42934 -0.317334,-0.168 -0.802668,-0.168 -0.466668,0 -0.802668,0.168 -0.336001,0.14934 -0.560001,0.41067 -0.224001,0.26133 -0.354668,0.616 -0.112,0.336 -0.168,0.69067 z m 12.058675,0.31733 q 0,2.20267 0.690668,4.20001 0.690668,1.99734 1.81067,3.58401 l -1.941337,1.25067 q -1.586669,-1.84801 -2.445338,-4.14401 -0.858668,-2.29601 -0.858668,-4.89068 0,-2.59467 0.858668,-4.89067 0.858669,-2.29601 2.445338,-4.14401 l 1.941337,1.25067 q -1.120002,1.58667 -1.81067,3.58401 -0.690668,1.99733 -0.690668,4.2 z m 12.52536,0.65334 q 0,1.15733 -0.336,2.128 -0.336,0.952 -0.97067,1.64267 -0.63467,0.672 -1.53067,1.04534 -0.87734,0.37333 -1.97867,0.37333 -1.08267,0 -1.97867,-0.37333 -0.87734,-0.37334 -1.512,-1.04534 -0.634672,-0.69067 -0.989339,-1.64267 -0.354667,-0.97067 -0.354667,-2.128 0,-1.15734 0.354667,-2.10934 0.373334,-0.952 1.007999,-1.624 0.65334,-0.672 1.53067,-1.04534 0.896,-0.37333 1.94134,-0.37333 1.064,0 1.94134,0.37333 0.896,0.37334 1.53067,1.04534 0.63466,0.672 0.98933,1.624 0.35467,0.952 0.35467,2.10934 z m -2.83734,0 q 0,-1.288 -0.52267,-2.01601 -0.504,-0.74666 -1.456,-0.74666 -0.952,0 -1.47467,0.74666 -0.52267,0.72801 -0.52267,2.01601 0,1.288 0.52267,2.05333 0.52267,0.74667 1.47467,0.74667 0.952,0 1.456,-0.74667 0.52267,-0.76533 0.52267,-2.05333 z m 9.24003,-9.55735 q 0.784,0 1.43733,0.168 0.65334,0.14933 1.008,0.29866 l -0.54133,2.22134 q -0.37334,-0.168 -0.82134,-0.24266 -0.42933,-0.0933 -0.80266,-0.0933 -0.50401,0 -0.85867,0.14934 -0.336,0.13066 -0.54134,0.37333 -0.18666,0.24267 -0.28,0.57867 -0.0747,0.336 -0.0747,0.728 v 0.48533 h 3.43467 v 2.31467 h -3.43467 v 7.50402 h -2.78134 v -10.34136 q 0,-1.904 1.064,-3.024 1.08267,-1.12 3.19201,-1.12 z m 7.82134,0 q 0.784,0 1.288,0.13066 0.52267,0.13067 0.87734,0.28 l -0.48533,2.18401 q -0.29867,-0.13067 -0.67201,-0.18667 -0.35466,-0.056 -0.728,-0.056 -0.504,0 -0.85867,0.14934 -0.336,0.13066 -0.54133,0.37333 -0.18667,0.24267 -0.28,0.57867 -0.0747,0.336 -0.0747,0.728 v 0.48533 h 3.43468 v 2.31467 H 121.168 v 7.50402 h -2.78134 v -10.34136 q 0,-1.904 1.06401,-3.024 1.08267,-1.12 3.192,-1.12 z m 6.34668,14.48536 h -2.78134 v -9.81869 h 2.78134 z m 0.26133,-12.65603 q 0,0.76534 -0.504,1.21334 -0.48533,0.42933 -1.15733,0.42933 -0.672,0 -1.176,-0.42933 -0.48534,-0.448 -0.48534,-1.21334 0,-0.76533 0.48534,-1.19466 0.504,-0.44801 1.176,-0.44801 0.672,0 1.15733,0.44801 0.504,0.42933 0.504,1.19466 z m 1.88535,7.74668 q 0,-1.064 0.336,-1.99733 0.35467,-0.952 1.00801,-1.64267 0.65333,-0.70934 1.58667,-1.12 0.93333,-0.41067 2.128,-0.41067 0.784,0 1.43734,0.14933 0.65333,0.13067 1.26933,0.392 l -0.57867,2.22134 q -0.392,-0.14933 -0.85866,-0.26133 -0.46667,-0.112 -1.04534,-0.112 -1.232,0 -1.848,0.76533 -0.59734,0.76534 -0.59734,2.016 0,1.32534 0.56,2.05334 0.57867,0.728 1.99734,0.728 0.504,0 1.08267,-0.0933 0.57867,-0.0933 1.064,-0.29867 l 0.392,2.27734 q -0.48533,0.20533 -1.21333,0.35467 -0.72801,0.14933 -1.60534,0.14933 -1.344,0 -2.31467,-0.392 -0.97067,-0.41067 -1.60534,-1.10134 -0.616,-0.69066 -0.91467,-1.624 -0.28,-0.952 -0.28,-2.05334 z m 12.58136,4.90935 h -2.78134 v -9.81869 h 2.78134 z m 0.26133,-12.65603 q 0,0.76534 -0.504,1.21334 -0.48533,0.42933 -1.15733,0.42933 -0.672,0 -1.176,-0.42933 -0.48534,-0.448 -0.48534,-1.21334 0,-0.76533 0.48534,-1.19466 0.504,-0.44801 1.176,-0.44801 0.672,0 1.15733,0.44801 0.504,0.42933 0.504,1.19466 z m 6.10401,10.71469 q 0.41067,0 0.784,-0.0187 0.37333,-0.0187 0.59733,-0.056 v -2.10933 q -0.168,-0.0373 -0.504,-0.0747 -0.336,-0.0373 -0.616,-0.0373 -0.392,0 -0.74667,0.056 -0.336,0.0373 -0.59733,0.168 -0.26133,0.13066 -0.41067,0.35466 -0.14933,0.224 -0.14933,0.56 0,0.65334 0.42933,0.91467 0.448,0.24267 1.21334,0.24267 z m -0.224,-8.13868 q 1.232,0 2.05333,0.28 0.82134,0.28 1.30667,0.80267 0.504,0.52266 0.70934,1.26933 0.20533,0.74667 0.20533,1.66134 v 5.78668 q -0.59733,0.13066 -1.66133,0.29866 -1.06401,0.18667 -2.57601,0.18667 -0.952,0 -1.736,-0.168 -0.76534,-0.168 -1.32534,-0.54133 -0.56,-0.392 -0.85867,-1.00801 -0.29866,-0.616 -0.29866,-1.512 0,-0.85867 0.336,-1.456 0.35466,-0.59734 0.93333,-0.952 0.57867,-0.35467 1.32534,-0.504 0.74667,-0.168 1.54933,-0.168 0.54134,0 0.95201,0.056 0.42933,0.0373 0.69066,0.112 v -0.26134 q 0,-0.70933 -0.42933,-1.13867 -0.42933,-0.42933 -1.49334,-0.42933 -0.70933,0 -1.4,0.112 -0.69067,0.0933 -1.19467,0.28 l -0.35466,-2.24 q 0.24266,-0.0747 0.59733,-0.14934 0.37333,-0.0933 0.80267,-0.14933 0.42933,-0.0747 0.896,-0.112 0.48533,-0.056 0.97067,-0.056 z m 10.71468,10.26668 q -1.21334,-0.0187 -1.97867,-0.26133 -0.74667,-0.24267 -1.19467,-0.672 -0.42934,-0.448 -0.59734,-1.064 -0.14933,-0.63467 -0.14933,-1.41867 v -10.80802 l 2.78134,-0.448 v 10.69602 q 0,0.37333 0.056,0.672 0.056,0.29867 0.20533,0.504 0.168,0.20533 0.46667,0.336 0.29867,0.13067 0.80267,0.168 z m 2.87467,-5.76801 q 0,-2.20267 -0.69067,-4.2 -0.69067,-1.99734 -1.81067,-3.58401 l 1.94134,-1.25067 q 1.58667,1.848 2.44533,4.14401 0.85867,2.296 0.85867,4.89067 0,2.59467 -0.85867,4.89068 -0.85866,2.296 -2.44533,4.14401 l -1.94134,-1.25067 q 1.12,-1.58667 1.81067,-3.58401 0.69067,-1.99734 0.69067,-4.20001 z"
         id="text1"
         aria-label="badge (official)" /></g><g
       id="g2"
       transform="translate(97)"><path
         id="circle"
         style="fill:#20df5f;fill-opacity:1;stroke:none;stroke-width:0;stroke-miterlimit:4;stroke-dasharray:none"
         d="m 414.5,20 a 100,100 0 0 0 -100,100 100,100 0 0 0 100,100 100,100 0 0 0 100,-100 100,100 0 0 0 -100,-100 z m -65.625,39.0625 h 18.75 v 84.375 c 0,10.46636 8.28365,18.75 18.75,18.75 h 18.75 v 18.75 h -18.75 c -20.59957,0 -37.5,-16.90043 -37.5,-37.5 z m 65.625,9.375 c 7.20449,0 13.75016,2.846403 18.75,7.373047 4.99985,-4.526644 11.54552,-7.373047 18.75,-7.373047 15.42192,0 28.125,12.703086 28.125,28.125 v 46.875 c 0,20.59957 -16.90043,37.5 -37.5,37.5 h -18.75 v -18.75 h 18.75 c 10.46636,0 18.75,-8.28364 18.75,-18.75 v -46.875 c 0,-5.28869 -4.08631,-9.375 -9.375,-9.375 -5.28869,0 -9.375,4.08631 -9.375,9.375 v 46.875 h -18.75 v -46.875 c 0,-5.28869 -4.0863,-9.375 -9.375,-9.375 -5.28869,0 -9.375,4.08631 -9.375,9.375 v 46.875 h -18.75 v -46.875 c 0,-15.421914 12.70309,-28.125 28.125,-28.125 z" /><path
         style="font-weight:bold;font-size:18.6667px;line-height:1.25;font-family:Ubuntu;-inkscape-font-specification:'Ubuntu Bold';fill:#808080"
         d="m 373.59195,246.68268 q 0.784,-1.32534 1.49333,-2.65067 0.70934,-1.32534 1.30667,-2.66934 h 3.21067 q -1.064,2.09067 -2.20267,4.05067 -1.13866,1.96 -2.408,3.93868 v 4.94667 h -2.91201 v -4.90934 q -1.26933,-1.97867 -2.42667,-3.95734 -1.13867,-1.97867 -2.20267,-4.06934 h 3.37868 q 0.59733,1.344 1.288,2.66934 0.69067,1.32533 1.47467,2.65067 z m 5.32,0.784 h 5.41335 v 2.52 h -5.41335 z m 7.18669,-2.65067 q 0.70933,-0.20534 1.82933,-0.37334 1.12001,-0.18666 2.35201,-0.18666 1.25067,0 2.072,0.336 0.84,0.31733 1.32534,0.91466 0.48533,0.59734 0.69066,1.41867 0.20534,0.82134 0.20534,1.82934 v 5.54401 h -2.78134 v -5.20801 q 0,-1.344 -0.35467,-1.904 -0.35466,-0.56 -1.32533,-0.56 -0.29867,0 -0.63467,0.0373 -0.336,0.0187 -0.59734,0.056 v 7.57868 h -2.78133 z m 10.52803,4.64801 q 0,-1.30667 0.392,-2.27734 0.41067,-0.98934 1.064,-1.64267 0.65334,-0.65334 1.49334,-0.98934 0.85867,-0.336 1.75467,-0.336 2.09067,0 3.304,1.288 1.21334,1.26934 1.21334,3.75201 0,0.24267 -0.0187,0.54134 -0.0187,0.28 -0.0373,0.504 h -6.30935 q 0.0933,0.85867 0.80267,1.36267 0.70934,0.504 1.90401,0.504 0.76533,0 1.49333,-0.13067 0.74667,-0.14933 1.21334,-0.35467 l 0.37333,2.25867 q -0.224,0.112 -0.59733,0.224 -0.37334,0.112 -0.84001,0.18667 -0.448,0.0933 -0.97066,0.14933 -0.52267,0.056 -1.04534,0.056 -1.32533,0 -2.31467,-0.392 -0.97067,-0.392 -1.624,-1.064 -0.63467,-0.69067 -0.952,-1.624 -0.29867,-0.93334 -0.29867,-2.016 z m 6.53334,-1.06401 q -0.0187,-0.35466 -0.13066,-0.69066 -0.0933,-0.33601 -0.31734,-0.59734 -0.20533,-0.26133 -0.54133,-0.42933 -0.31734,-0.168 -0.80267,-0.168 -0.46667,0 -0.80267,0.168 -0.336,0.14933 -0.56,0.41066 -0.224,0.26134 -0.35467,0.61601 -0.112,0.336 -0.168,0.69066 z m 7.20534,0.672 q 0,2.33334 1.88534,2.33334 0.42934,0 0.80267,-0.112 0.37333,-0.112 0.63467,-0.26133 v -4.44268 q -0.20534,-0.0373 -0.48534,-0.056 -0.28,-0.0373 -0.65333,-0.0373 -1.10134,0 -1.64267,0.728 -0.54134,0.728 -0.54134,1.848 z m 6.10402,3.99468 q 0,2.408 -1.23201,3.56534 -1.21333,1.176 -3.77067,1.176 -0.896,0 -1.792,-0.168 -0.896,-0.14933 -1.66134,-0.41067 l 0.48533,-2.33333 q 0.65334,0.26133 1.36267,0.41066 0.72801,0.14934 1.64267,0.14934 1.19467,0 1.68001,-0.52267 0.504,-0.52267 0.504,-1.344 v -0.35467 q -0.448,0.20533 -0.93334,0.31733 -0.46666,0.0933 -1.02667,0.0933 -2.03467,0 -3.11733,-1.19467 -1.08267,-1.21334 -1.08267,-3.37868 0,-1.08266 0.336,-1.96 0.336,-0.896 0.97067,-1.53067 0.65333,-0.63467 1.58667,-0.97067 0.93333,-0.35466 2.10933,-0.35466 0.504,0 1.02667,0.056 0.54134,0.0373 1.064,0.112 0.52267,0.0747 0.98934,0.18666 0.48533,0.0933 0.85867,0.20534 z m 6.36534,-0.70934 q 0.41066,0 0.784,-0.0187 0.37333,-0.0187 0.59733,-0.056 v -2.10934 q -0.168,-0.0373 -0.504,-0.0747 -0.336,-0.0373 -0.616,-0.0373 -0.392,0 -0.74667,0.056 -0.336,0.0373 -0.59733,0.168 -0.26134,0.13067 -0.41067,0.35467 -0.14933,0.224 -0.14933,0.56 0,0.65333 0.42933,0.91467 0.448,0.24266 1.21334,0.24266 z m -0.224,-8.13868 q 1.232,0 2.05333,0.28 0.82134,0.28 1.30667,0.80267 0.504,0.52267 0.70934,1.26934 0.20533,0.74666 0.20533,1.66133 v 5.78668 q -0.59733,0.13067 -1.66134,0.29867 -1.064,0.18666 -2.576,0.18666 -0.952,0 -1.736,-0.168 -0.76534,-0.168 -1.32534,-0.54133 -0.56,-0.392 -0.85867,-1.008 -0.29866,-0.616 -0.29866,-1.512 0,-0.85867 0.336,-1.45601 0.35466,-0.59733 0.93333,-0.952 0.57867,-0.35467 1.32534,-0.504 0.74667,-0.168 1.54933,-0.168 0.54134,0 0.95201,0.056 0.42933,0.0373 0.69066,0.112 v -0.26133 q 0,-0.70934 -0.42933,-1.13867 -0.42934,-0.42934 -1.49334,-0.42934 -0.70933,0 -1.4,0.112 -0.69067,0.0933 -1.19467,0.28 l -0.35467,-2.24 q 0.24267,-0.0747 0.59734,-0.14933 0.37333,-0.0933 0.80267,-0.14934 0.42933,-0.0747 0.896,-0.112 0.48533,-0.056 0.97067,-0.056 z m 6.70133,-2.184 2.78134,-0.448 v 2.89334 h 3.34134 v 2.31467 h -3.34134 v 3.45334 q 0,0.87733 0.29867,1.4 0.31733,0.52267 1.25067,0.52267 0.448,0 0.91466,-0.0747 0.48534,-0.0933 0.87734,-0.24267 l 0.392,2.16534 q -0.504,0.20533 -1.12,0.35467 -0.616,0.14933 -1.51201,0.14933 -1.13866,0 -1.88533,-0.29867 -0.74667,-0.31733 -1.19467,-0.85866 -0.448,-0.56001 -0.63467,-1.34401 -0.168,-0.784 -0.168,-1.736 z m 11.16269,12.26402 h -2.78133 v -9.81868 h 2.78133 z m 0.26134,-12.65602 q 0,0.76533 -0.504,1.21333 -0.48534,0.42934 -1.15734,0.42934 -0.672,0 -1.176,-0.42934 -0.48534,-0.448 -0.48534,-1.21333 0,-0.76534 0.48534,-1.19467 0.504,-0.448 1.176,-0.448 0.672,0 1.15734,0.448 0.504,0.42933 0.504,1.19467 z m 4.72265,12.65602 q -0.952,-1.86667 -1.94134,-4.36801 -0.97067,-2.50133 -1.848,-5.45067 h 2.94934 q 0.18666,0.728 0.42933,1.58667 0.26134,0.84 0.52267,1.71733 0.28,0.85867 0.54133,1.68001 0.28,0.82133 0.54134,1.49333 0.24266,-0.672 0.52267,-1.49333 0.28,-0.82134 0.54133,-1.68001 0.28,-0.87733 0.52267,-1.71733 0.26133,-0.85867 0.448,-1.58667 h 2.87467 q -0.87733,2.94934 -1.86667,5.45067 -0.97067,2.50134 -1.92267,4.36801 z m 6.86933,-4.83467 q 0,-1.30667 0.392,-2.27734 0.41067,-0.98934 1.06401,-1.64267 0.65333,-0.65334 1.49333,-0.98934 0.85867,-0.336 1.75467,-0.336 2.09067,0 3.30401,1.288 1.21333,1.26934 1.21333,3.75201 0,0.24267 -0.0187,0.54134 -0.0187,0.28 -0.0373,0.504 h -6.30934 q 0.0933,0.85867 0.80267,1.36267 0.70933,0.504 1.904,0.504 0.76534,0 1.49334,-0.13067 0.74666,-0.14933 1.21333,-0.35467 l 0.37334,2.25867 q -0.224,0.112 -0.59734,0.224 -0.37333,0.112 -0.84,0.18667 -0.448,0.0933 -0.97067,0.14933 -0.52267,0.056 -1.04533,0.056 -1.32534,0 -2.31467,-0.392 -0.97067,-0.392 -1.62401,-1.064 -0.63467,-0.69067 -0.952,-1.624 -0.29867,-0.93334 -0.29867,-2.016 z m 6.53335,-1.06401 q -0.0187,-0.35466 -0.13067,-0.69066 -0.0933,-0.33601 -0.31733,-0.59734 -0.20534,-0.26133 -0.54134,-0.42933 -0.31733,-0.168 -0.80266,-0.168 -0.46667,0 -0.80267,0.168 -0.336,0.14933 -0.56,0.41066 -0.224,0.26134 -0.35467,0.61601 -0.112,0.336 -0.168,0.69066 z"
         id="text2"
         aria-label="Y-negative" /></g><g
       id="g3"
       transform="translate(97)"><path
         id="path1393"
         style="fill:#20df5f;fill-opacity:1;stroke:none;stroke-width:0;stroke-linejoin:bevel;stroke-miterlimit:4;stroke-dasharray:none"
         d="M 730,20 A 100,100 0 0 0 630,120 100,100 0 0 0 730,220 100,100 0 0 0 830,120 100,100 0 0 0 730,20 Z m -11.11111,27.77778 h 22.22222 v 63.75976 l 17.38607,-30.42643 h 19.19596 7.86242 v 100 h -22.22223 v -74.87088 l -22.22222,38.88889 v 35.98199 h -22.22222 v -35.98199 l -22.22222,-38.88889 v 74.87088 h -22.22223 v -100 h 7.86242 19.19596 l 17.38607,30.42643 z" /><path
         style="font-weight:bold;font-size:18.6667px;line-height:1.25;font-family:Ubuntu;-inkscape-font-specification:'Ubuntu Bold';fill:#808080"
         d="m 699.37728,242.22134 2.78133,-0.448 v 2.89334 h 3.34134 v 2.31467 h -3.34134 v 3.45334 q 0,0.87734 0.29867,1.40001 0.31734,0.52266 1.25067,0.52266 0.448,0 0.91467,-0.0747 0.48533,-0.0933 0.87733,-0.24267 l 0.392,2.16534 q -0.504,0.20533 -1.12,0.35466 -0.616,0.14934 -1.512,0.14934 -1.13867,0 -1.88534,-0.29867 -0.74667,-0.31733 -1.19467,-0.85867 -0.448,-0.56 -0.63466,-1.344 -0.168,-0.784 -0.168,-1.736 z m 14.29869,4.90935 q -0.37333,-0.0933 -0.87733,-0.18667 -0.504,-0.112 -1.08267,-0.112 -0.26133,0 -0.63467,0.056 -0.35467,0.0373 -0.54133,0.0933 v 7.50402 h -2.78134 v -9.29602 q 0.74667,-0.26133 1.75467,-0.48533 1.02667,-0.24267 2.27734,-0.24267 0.224,0 0.54133,0.0373 0.31733,0.0187 0.63467,0.0747 0.31733,0.0373 0.63467,0.112 0.31733,0.056 0.54133,0.14933 z m 4.74136,7.35468 h -2.78134 v -9.81869 h 2.78134 z m 0.26133,-12.65603 q 0,0.76534 -0.504,1.21334 -0.48533,0.42933 -1.15733,0.42933 -0.672,0 -1.176,-0.42933 -0.48534,-0.448 -0.48534,-1.21334 0,-0.76533 0.48534,-1.19466 0.504,-0.44801 1.176,-0.44801 0.672,0 1.15733,0.44801 0.504,0.42933 0.504,1.19466 z m 4.72267,7.67202 q 0,1.288 0.57867,2.072 0.57867,0.784 1.71734,0.784 0.37333,0 0.69066,-0.0187 0.31734,-0.0373 0.52267,-0.0747 v -5.05868 q -0.26133,-0.168 -0.69067,-0.28 -0.41066,-0.112 -0.84,-0.112 -1.97867,0 -1.97867,2.68801 z m 6.29068,4.66667 q -0.37333,0.112 -0.85867,0.224 -0.48533,0.0933 -1.02667,0.168 -0.52266,0.0747 -1.08267,0.112 -0.54133,0.056 -1.04533,0.056 -1.21334,0 -2.16534,-0.35466 -0.952,-0.35467 -1.60533,-1.00801 -0.65334,-0.672 -1.00801,-1.60533 -0.336,-0.952 -0.336,-2.12801 0,-1.19466 0.29867,-2.14667 0.29867,-0.97066 0.85867,-1.64267 0.56,-0.672 1.36267,-1.02666 0.82133,-0.35467 1.86667,-0.35467 0.57867,0 1.02667,0.112 0.46666,0.112 0.93333,0.31733 v -4.44267 l 2.78134,-0.448 z m 2.14667,-4.51734 q 0,-1.30667 0.392,-2.27734 0.41067,-0.98933 1.064,-1.64267 0.65334,-0.65333 1.49334,-0.98933 0.85867,-0.336 1.75467,-0.336 2.09067,0 3.30401,1.288 1.21333,1.26934 1.21333,3.75201 0,0.24266 -0.0187,0.54133 -0.0187,0.28 -0.0373,0.504 h -6.30934 q 0.0933,0.85867 0.80266,1.36267 0.70934,0.504 1.90401,0.504 0.76533,0 1.49333,-0.13066 0.74667,-0.14934 1.21334,-0.35467 l 0.37333,2.25867 q -0.224,0.112 -0.59733,0.224 -0.37333,0.112 -0.84,0.18667 -0.448,0.0933 -0.97067,0.14933 -0.52267,0.056 -1.04534,0.056 -1.32533,0 -2.31467,-0.392 -0.97066,-0.392 -1.624,-1.064 -0.63467,-0.69067 -0.952,-1.624 -0.29867,-0.93334 -0.29867,-2.01601 z m 6.53335,-1.064 q -0.0187,-0.35467 -0.13067,-0.69067 -0.0933,-0.336 -0.31733,-0.59733 -0.20534,-0.26134 -0.54134,-0.42934 -0.31733,-0.168 -0.80267,-0.168 -0.46666,0 -0.80266,0.168 -0.33601,0.14934 -0.56001,0.41067 -0.224,0.26133 -0.35466,0.616 -0.112,0.336 -0.168,0.69067 z m 4.83467,-3.58401 q 0.70933,-0.20533 1.82933,-0.37333 1.12001,-0.18667 2.35201,-0.18667 1.25067,0 2.072,0.336 0.84,0.31734 1.32534,0.91467 0.48533,0.59734 0.69067,1.41867 0.20533,0.82133 0.20533,1.82934 v 5.54401 h -2.78134 v -5.20801 q 0,-1.34401 -0.35467,-1.90401 -0.35466,-0.56 -1.32533,-0.56 -0.29867,0 -0.63467,0.0373 -0.336,0.0187 -0.59733,0.056 v 7.57868 h -2.78134 z m 10.90136,-2.78134 2.78134,-0.448 v 2.89334 h 3.34134 v 2.31467 h -3.34134 v 3.45334 q 0,0.87734 0.29867,1.40001 0.31733,0.52266 1.25067,0.52266 0.448,0 0.91466,-0.0747 0.48534,-0.0933 0.87734,-0.24267 l 0.392,2.16534 q -0.504,0.20533 -1.12,0.35466 -0.616,0.14934 -1.51201,0.14934 -1.13866,0 -1.88533,-0.29867 -0.74667,-0.31733 -1.19467,-0.85867 -0.448,-0.56 -0.63467,-1.344 -0.168,-0.784 -0.168,-1.736 z"
         id="text3"
         aria-label="trident" /></g></g></svg>
